<?xml version="1.0" encoding="UTF-8" standalone="no"?>
<!-- Created with Inkscape (http://www.inkscape.org/) -->

<svg
   xmlns:dc="http://purl.org/dc/elements/1.1/"
   xmlns:cc="http://creativecommons.org/ns#"
   xmlns:rdf="http://www.w3.org/1999/02/22-rdf-syntax-ns#"
   xmlns:svg="http://www.w3.org/2000/svg"
   xmlns="http://www.w3.org/2000/svg"
   xmlns:sodipodi="http://sodipodi.sourceforge.net/DTD/sodipodi-0.dtd"
   xmlns:inkscape="http://www.inkscape.org/namespaces/inkscape"
   width="210mm"
   height="297mm"
   viewBox="0 0 210 297"
   version="1.1"
   id="svg8"
   inkscape:version="0.92.3 (2405546, 2018-03-11)"
   sodipodi:docname="HUDIcons.svg">
  <defs
     id="defs2" />
  <sodipodi:namedview
     id="base"
     pagecolor="#ffffff"
     bordercolor="#666666"
     borderopacity="1.0"
     inkscape:pageopacity="0.0"
     inkscape:pageshadow="2"
     inkscape:zoom="0.92173914"
     inkscape:cx="295.69243"
     inkscape:cy="758.39632"
     inkscape:document-units="mm"
     inkscape:current-layer="layer1"
     showgrid="true"
     inkscape:snap-bbox="true"
     inkscape:snap-center="true"
     inkscape:snap-object-midpoints="true"
     inkscape:window-width="1920"
     inkscape:window-height="1017"
     inkscape:window-x="-8"
     inkscape:window-y="-8"
     inkscape:window-maximized="1">
    <inkscape:grid
       type="xygrid"
       id="grid815" />
  </sodipodi:namedview>
  <metadata
     id="metadata5">
    <rdf:RDF>
      <cc:Work
         rdf:about="">
        <dc:format>image/svg+xml</dc:format>
        <dc:type
           rdf:resource="http://purl.org/dc/dcmitype/StillImage" />
        <dc:title />
      </cc:Work>
    </rdf:RDF>
  </metadata>
  <g
     inkscape:label="Layer 1"
     inkscape:groupmode="layer"
     id="layer1">
    <rect
       style="fill:#1cffff;fill-opacity:1;stroke:#29ffff;stroke-width:10;stroke-linecap:round;stroke-linejoin:round;stroke-miterlimit:4;stroke-dasharray:none;stroke-opacity:1;paint-order:stroke markers fill"
       id="rect844"
       width="423.33331"
       height="190.5"
       x="-29.104166"
       y="-115.75" />
    <path
       style="fill:#ffffff;fill-opacity:1;stroke:none;stroke-width:0.89773321;stroke-linecap:butt;stroke-linejoin:miter;stroke-miterlimit:4;stroke-dasharray:none;stroke-opacity:1"
       d="m 126.27782,-13.483043 c -1.39121,2.17756 -2.39747,3.7663925 -3.16529,4.9940615 2.68419,4.4160001 3.16062,5.293276 5.00798,8.72719745 2.3367,4.34358185 5.10055,8.26361505 5.56838,11.41095305 0.77015,5.181124 -0.57454,8.847329 -2.73571,11.391006 4.18685,-1.645687 8.89609,-5.587269 7.67875,-13.7769287 -0.41698,-2.8052245 -2.88027,-6.2990004 -4.96298,-10.17044132 -2.16524,-4.02480118 -2.16556,-4.02493878 -7.39113,-12.57584798 z m -6.45446,1.900203 c -5.46308,8.5509076 -5.07913,8.1586712 -7.02137,11.54131548 -2.57122,4.47801522 -4.86471,8.12961802 -5.37309,11.25646852 -1.91067,11.751693 8.18494,14.731204 12.39446,14.731204 3.56708,0 14.10679,-2.988432 12.35363,-14.782699 -0.41698,-2.8052262 -2.88027,-6.299 -4.96298,-10.17044181 C 125.04879,-3.031794 125.04892,-3.0319324 119.82336,-11.58284 Z M 118.7712,5.5189771 h 1.62881 v 4.8864319 h 4.88643 v 1.628811 h -4.88643 v 4.885968 H 118.7712 V 12.03422 h -4.88597 v -1.628811 h 4.88597 z"
       id="path902"
       inkscape:connector-curvature="0"
       inkscape:export-filename="C:\Users\Kunik\Desktop\Icons.png"
       inkscape:export-xdpi="300"
       inkscape:export-ydpi="300" />
    <g
       id="g900"
       transform="matrix(1.3714283,0,0,1.3714283,-81.869606,-104.19105)"
       style="stroke:#ffffff;stroke-width:1;stroke-linecap:square;stroke-linejoin:bevel;stroke-miterlimit:4;stroke-dasharray:none;stroke-opacity:1" />
    <path
       style="fill:#ffffff;fill-opacity:1;stroke:none;stroke-width:0.09570282;stroke-linecap:round;stroke-linejoin:round;stroke-miterlimit:4;stroke-dasharray:none;stroke-opacity:1"
       d="m 166.81359,-72.343118 c 0,0 -6.52861,8.377889 -9.00786,13.014529 -1.97265,3.689206 -4.27384,7.52924 -4.67386,11.64768 -0.2857,2.941597 0.50807,6.120437 2.09115,8.616135 1.45699,2.29694 3.90432,3.937266 6.35349,5.120636 1.58189,0.764333 3.38922,1.026686 5.135,1.030174 1.78126,0.0036 3.63221,-0.255473 5.24361,-1.030174 2.45148,-1.178568 4.8965,-2.823696 6.35349,-5.120636 1.58308,-2.495698 2.37685,-5.674538 2.09115,-8.616135 -0.40003,-4.11844 -2.69203,-7.963396 -4.67386,-11.64768 -2.49935,-4.646358 -8.91231,-13.014529 -8.91231,-13.014529 z m -1.33773,6.593111 c -0.73381,3.749059 -2.01953,7.331403 -3.05768,10.988523 -0.90891,3.002541 -1.39957,5.850313 -1.62439,8.599711 0.23519,4.065448 0.96613,6.419796 1.71994,8.695262 -1.62195,-0.900419 -3.24429,-1.923822 -4.87317,-4.968721 -1.02474,-2.875617 -1.4361,-5.725138 -0.1911,-8.50416 2.44124,-5.626556 5.34999,-9.884393 8.0264,-14.810615 z"
       id="path937"
       inkscape:connector-curvature="0"
       sodipodi:nodetypes="cscccccccccccccccc"
       inkscape:export-filename="C:\Users\Kunik\Desktop\Icons.png"
       inkscape:export-xdpi="300"
       inkscape:export-ydpi="300" />
    <g
       id="g892"
       transform="matrix(0.77916658,0,0,0.77916658,98.13502,-98.377522)"
       inkscape:export-filename="C:\Users\Kunik\Desktop\Icons.png"
       inkscape:export-xdpi="300"
       inkscape:export-ydpi="300">
      <path
         sodipodi:nodetypes="cscsc"
         inkscape:connector-curvature="0"
         id="path969"
         d="m 136.37381,124.22708 c -26.72291,-1.32291 -34.39583,21.69584 -25.76139,36.0321 7.16303,11.8932 29.42318,18.93088 41.63639,-1.1071 -8.63498,8.42125 -23.73024,3.00351 -27.78125,-6.61458 -3.55275,-8.43509 -4.7625,-22.225 11.90625,-28.31042 z"
         style="fill:none;stroke:#ffffff;stroke-width:3;stroke-linecap:round;stroke-linejoin:round;stroke-miterlimit:4;stroke-dasharray:none;stroke-opacity:1"
         inkscape:export-xdpi="300"
         inkscape:export-ydpi="300" />
      <path
         sodipodi:nodetypes="ccccccccccccc"
         inkscape:connector-curvature="0"
         id="path870"
         transform="matrix(0.26458333,0,0,0.26458333,54.352979,89.693749)"
         d="m 305,156.51953 -4,8 30.46094,11.69938 L 309,191.51969 286.46094,206.21891 282,215.51953 l 39,16 4,-8 -30,-12 22,-14.99984 23,-15.00016 4,-9 z"
         style="fill:#ffffff;fill-opacity:1;stroke:none;stroke-width:0.99999994px;stroke-linecap:butt;stroke-linejoin:miter;stroke-opacity:1"
         inkscape:export-xdpi="300"
         inkscape:export-ydpi="300" />
      <path
         style="fill:#ffffff;fill-opacity:1;stroke:#ffffff;stroke-width:0.5;stroke-linecap:butt;stroke-linejoin:miter;stroke-miterlimit:4;stroke-dasharray:none;stroke-opacity:1"
         d="m 144.20653,139.98805 -0.43805,1.77677 6.60625,0.96319 -3.7937,4.06523 -3.83636,3.94867 -0.47148,2.0571 8.50413,1.43695 0.43806,-1.77677 -6.52779,-1.04395 3.71525,-3.98439 3.91482,-4.0295 0.393,-1.97635 z"
         id="path875"
         inkscape:connector-curvature="0"
         sodipodi:nodetypes="ccccccccccccc"
         inkscape:export-xdpi="300"
         inkscape:export-ydpi="300" />
      <path
         sodipodi:nodetypes="ccccccccccccc"
         inkscape:connector-curvature="0"
         id="path877"
         d="m 154.02036,148.61418 0.21493,0.94786 3.36586,-1.11511 -0.83361,2.83312 -0.88161,2.78793 0.26578,1.08892 4.37972,-1.34191 -0.21492,-0.94786 -3.34783,1.05809 0.8156,-2.77607 0.89962,-2.84498 -0.28382,-1.0319 z"
         style="fill:#fffffb;fill-opacity:1;stroke:#ffffff;stroke-width:0.69999999;stroke-linecap:butt;stroke-linejoin:miter;stroke-miterlimit:4;stroke-dasharray:none;stroke-opacity:1"
         inkscape:export-xdpi="300"
         inkscape:export-ydpi="300" />
    </g>
    <path
       inkscape:connector-curvature="0"
       id="path905"
       d="m 253.38793,-36.464485 -18.32886,18.328858 14.25586,6.10951 -8.14602,14.2558512 30.54788,-16.2923542 v -2.036504 l -12.21936,-4.073333 12.21936,-12.219021 z m 0.0249,1.794701 16.76515,3.725846 -11.17687,11.176555 11.17687,3.725847 v 1.862759 l -27.94204,14.90240238 7.45135,-13.03964238 -13.03963,-5.588279 z"
       style="fill:#ffffff;fill-opacity:1;stroke:#ffffff;stroke-width:0.40730697px;stroke-linecap:butt;stroke-linejoin:miter;stroke-opacity:1"
       inkscape:export-filename="C:\Users\Kunik\Desktop\Icons.png"
       inkscape:export-xdpi="300"
       inkscape:export-ydpi="300" />
    <g
       id="g944"
       transform="matrix(0.41058747,0,0,0.41058747,209.4187,-81.236842)"
       inkscape:export-filename="C:\Users\Kunik\Desktop\Icons.png"
       inkscape:export-xdpi="300"
       inkscape:export-ydpi="300">
      <path
         inkscape:connector-curvature="0"
         id="path924"
         d="m 244.73206,107.67357 c -21.16967,0.2664 -44.2545,21.62632 -25.22069,52.48052 2.46167,-0.0119 10.70691,-0.0984 16.63775,-0.77566 0.30962,-0.82172 0.68582,-1.91777 1.58026,-3.22461 1.1989,-1.75173 3.32918,-3.6913 6.59391,-3.91604 3.35165,-0.23068 5.93353,1.40348 7.52513,3.13314 0.44131,0.4796 0.52642,0.80523 0.84956,1.26349 2.20363,-15.86517 4.21524,-26.95133 4.21524,-26.95133 a 5.0005001,5.0005001 0 0 1 0.002,-0.0114 c 0.48215,-2.42051 2.34704,-4.26536 4.64881,-4.92011 a 5.0005001,5.0005001 0 0 1 1.67173,-0.31058 v -5.1e-4 c 10e-4,-10e-6 10e-4,0 0.002,0 2.8981,-0.0236 5.50606,1.92612 6.30245,4.71289 a 5.0005001,5.0005001 0 0 1 0,0.002 c 1.76673,6.18356 2.22308,15.17718 2.72283,25.44961 0.07,1.43933 0.13758,2.85368 0.20878,4.27106 1.15369,-0.32313 2.26272,-0.45826 3.19153,-0.39016 0.68861,0.0504 0.98148,0.18106 1.49242,0.29662 0.21285,-0.40614 0.16523,-0.47125 0.47801,-0.93741 0.0208,-0.031 0.51321,-1.02592 1.21904,-2.28513 0.71943,-1.28347 2.03897,-3.37357 4.54856,-4.73252 3.00295,-1.62609 6.70021,-1.85109 9.96322,-0.29714 4.32923,2.06173 5.81557,6.06033 6.62905,7.83208 0.0956,0.20825 0.13738,0.21409 0.23048,0.38292 0.89634,-0.8953 2.66399,-2.56788 5.63273,-2.98793 3.32816,-0.4709 5.94997,0.82669 7.29464,1.5136 1.30353,0.66589 2.33804,1.03774 1.79111,0.92191 0.88112,0.18661 4.11497,0.40551 6.21047,0.53485 26.60731,-45.83016 -39.99715,-69.899166 -51.24803,-33.07809 -3.8654,-12.65039 -14.26439,-18.11342 -25.17262,-17.97616 z m 34.51675,51.47851 c -0.0189,-6e-4 -0.0978,0.0402 -0.11885,0.0408 0.17199,0.0398 0.44713,0.11111 0.45113,0.11162 0.003,4.6e-4 -0.0371,-0.14345 -0.33228,-0.15245 z m -3.09748,1.5937 c -0.1784,0.2298 -0.16427,0.33123 -0.0977,0.19121 0.006,-0.012 0.0887,-0.17051 0.0977,-0.19121 z m 12.50208,3.9393 c -0.11201,0.1804 -0.0982,0.21329 -0.2248,0.40204 0.34667,-0.51669 -0.12485,0.36403 -0.63458,1.43557 -0.54091,1.13713 -1.74366,3.4072 -4.34186,4.77749 -2.82081,1.48778 -5.21618,1.04902 -6.77168,0.63665 -0.22769,0.35363 -0.17551,0.2126 -0.40824,0.75964 -0.62768,1.47542 -1.21249,3.45943 -1.58182,5.32629 -0.77182,3.90136 -0.93947,7.44554 -0.93947,7.44554 a 5.0005001,5.0005001 0 0 1 0,0.01 c -0.15724,3.37966 -3.4988,6.15226 -6.39083,6.19756 -2.89203,0.0453 -6.31902,-2.62139 -6.58203,-5.99447 a 5.0005001,5.0005001 0 0 1 -0.002,-0.0155 c -0.31225,-4.16323 -0.47391,-9.20799 -0.6873,-13.97072 -0.55244,0.20646 -1.09543,0.36104 -1.55856,0.42374 -0.82792,0.11206 -1.11937,-0.0291 -1.73633,-0.12299 -1.11667,0.67354 -2.77494,1.46204 -5.12888,1.08004 -3.04454,-0.49407 -5.08967,-2.36816 -6.29316,-3.8809 -1.06386,1.23469 -2.4747,2.45961 -4.75785,2.84014 -3.42845,0.57141 -7.40859,0.87266 -11.05772,1.02629 9.04038,9.63895 22.12954,19.9468 40.34844,30.64051 19.58768,-11.49712 33.23976,-22.54731 42.31163,-32.80058 -2.00243,-0.42929 -3.31996,-1.14611 -4.20957,-1.64383 -0.80069,0.78306 -1.94149,1.7515 -3.84575,2.40605 -1.80245,0.61958 -5.42981,1.76808 -9.3028,-0.045 -3.84127,-1.79819 -5.31318,-4.9484 -6.20478,-6.93343 z m -29.73669,5.93969 c -0.1285,0.10844 -0.19287,0.15886 -0.24546,0.19843 0.0748,-0.0551 0.14945,-0.11606 0.24546,-0.19843 z"
         style="fill:#fdffff;fill-opacity:0.98921835;stroke:none;stroke-width:0.26458332px;stroke-linecap:butt;stroke-linejoin:miter;stroke-opacity:1" />
      <path
         style="color:#000000;font-style:normal;font-variant:normal;font-weight:normal;font-stretch:normal;font-size:medium;line-height:normal;font-family:sans-serif;font-variant-ligatures:normal;font-variant-position:normal;font-variant-caps:normal;font-variant-numeric:normal;font-variant-alternates:normal;font-feature-settings:normal;text-indent:0;text-align:start;text-decoration:none;text-decoration-line:none;text-decoration-style:solid;text-decoration-color:#000000;letter-spacing:normal;word-spacing:normal;text-transform:none;writing-mode:lr-tb;direction:ltr;text-orientation:mixed;dominant-baseline:auto;baseline-shift:baseline;text-anchor:start;white-space:normal;shape-padding:0;clip-rule:nonzero;display:inline;overflow:visible;visibility:visible;opacity:1;isolation:auto;mix-blend-mode:normal;color-interpolation:sRGB;color-interpolation-filters:linearRGB;solid-color:#000000;solid-opacity:1;vector-effect:none;fill:#ffffff;fill-opacity:1;fill-rule:nonzero;stroke:none;stroke-width:10;stroke-linecap:round;stroke-linejoin:round;stroke-miterlimit:4;stroke-dasharray:none;stroke-dashoffset:0;stroke-opacity:1;color-rendering:auto;image-rendering:auto;shape-rendering:auto;text-rendering:auto;enable-background:accumulate"
         d="m 263.9397,128.78233 a 1.50015,1.50015 0 0 0 -1.45898,1.20703 c 0,0 -2.54669,12.96166 -5.13281,33.2832 -0.40704,-0.13116 -0.90534,-0.23702 -1.67774,-0.0547 -1.00147,0.23641 -1.5256,0.79907 -1.88672,1.07617 -0.36111,0.2771 -0.366,0.19569 -0.17578,0.22656 -0.43433,-0.0705 -0.83599,-0.34539 -1.33594,-0.97851 -0.49994,-0.63313 -1.00502,-1.56507 -1.53906,-2.54688 -0.53403,-0.98181 -1.09017,-2.01581 -1.90234,-2.89844 -0.81217,-0.88262 -2.06132,-1.62844 -3.50196,-1.52929 -1.26239,0.0869 -2.23971,0.9179 -2.81054,1.75195 -0.57084,0.83404 -0.90882,1.73903 -1.22852,2.57617 -0.3197,0.83714 -0.61813,1.611 -0.89453,2.08008 -0.2764,0.46908 -0.39863,0.50361 -0.43555,0.50976 -7.63484,1.27248 -20.95507,1.01563 -20.95507,1.01563 a 1.5003466,1.5003466 0 1 0 -0.0645,3 c 0,0 13.27352,0.31672 21.51367,-1.05664 1.23124,-0.20521 2.03614,-1.11167 2.52735,-1.94531 0.49121,-0.83365 0.80174,-1.72254 1.11133,-2.53321 0.30958,-0.81066 0.62,-1.54059 0.90234,-1.95312 0.28234,-0.41253 0.36218,-0.44095 0.53906,-0.45313 0.42584,-0.0293 0.64087,0.0804 1.08985,0.56836 0.44897,0.48792 0.95061,1.34102 1.47265,2.30078 0.52204,0.95976 1.07094,2.02118 1.82227,2.97266 0.75133,0.95148 1.79659,1.85088 3.20898,2.08008 1.16353,0.18882 2.00387,-0.43943 2.48242,-0.80664 0.47856,-0.36722 0.7918,-0.54698 0.75,-0.53711 -0.36232,0.0855 0.2514,0.0877 0.89454,0.24804 0.32156,0.0802 0.66444,0.20078 1.26757,0.11915 0.30157,-0.0408 0.71361,-0.16897 1.05664,-0.49219 0.34304,-0.32322 0.52502,-0.78607 0.57032,-1.14844 1.38045,-11.04367 2.70167,-19.53717 3.70312,-25.48633 0.44889,4.33777 0.81088,9.38145 1.08203,14.95508 0.49507,10.17634 0.82445,21.4237 1.49024,30.30078 a 1.50015,1.50015 0 0 0 2.99414,-0.0469 c 0,0 0.17244,-3.86216 1.0293,-8.19336 0.85685,-4.33121 2.60455,-9.00867 4.70507,-10.49024 0.12022,-0.0848 0.23519,-0.12349 0.58789,-0.0977 0.3527,0.0258 0.87571,0.15621 1.47461,0.32812 1.19781,0.34382 2.85166,0.99031 4.56641,0.0859 1.16063,-0.61212 1.75031,-1.64642 2.1582,-2.50391 0.4079,-0.85748 0.69886,-1.62633 0.99805,-2.07226 0.66986,-0.9984 1.10232,-2.02305 1.55469,-2.83008 0.45237,-0.80703 0.88079,-1.33859 1.38086,-1.60938 0.73108,-0.39588 2.00725,-0.44542 2.71289,-0.10937 1.13148,0.53885 1.91816,2.02919 2.79883,3.94727 0.88066,1.91807 1.85696,4.26856 4.2539,5.39062 1.98066,0.92719 4.02536,0.37077 5.5586,-0.15625 1.39457,-0.47935 2.2174,-1.46462 2.90429,-2.15625 0.68689,-0.69163 1.16784,-1.04736 1.53711,-1.09961 0.6851,-0.0969 1.48577,0.18173 2.5332,0.7168 1.04744,0.53507 2.24859,1.2997 3.7754,1.62304 3.38151,0.71616 9.5,0.81836 9.5,0.81836 a 1.5004119,1.5004119 0 1 0 0.0703,-3 c 0,0 -6.29276,-0.18935 -8.94922,-0.75195 -0.82951,-0.17567 -1.84904,-0.75741 -3.03125,-1.36133 -1.18222,-0.60392 -2.61864,-1.25611 -4.31836,-1.01562 -1.53522,0.21722 -2.50507,1.21089 -3.24609,1.95703 -0.74103,0.74614 -1.32558,1.28576 -1.75,1.43164 -1.26628,0.43526 -2.61015,0.60326 -3.31055,0.27539 -1.13306,-0.53041 -1.9211,-2.00789 -2.80078,-3.92383 -0.87968,-1.91594 -1.84886,-4.2673 -4.23633,-5.4043 -1.74664,-0.83181 -3.77427,-0.71777 -5.43164,0.17969 -1.2649,0.68495 -2.00833,1.78215 -2.56836,2.78125 -0.56003,0.9991 -0.97932,1.95666 -1.42773,2.625 -0.60121,0.89608 -0.90218,1.79366 -1.2168,2.45508 -0.31463,0.66142 -0.57883,0.99885 -0.84766,1.14063 -0.28939,0.15262 -1.10654,0.0381 -2.3418,-0.31641 -0.61762,-0.17728 -1.30042,-0.38025 -2.08203,-0.4375 -0.78161,-0.0573 -1.72959,0.0705 -2.53515,0.63867 -2.41888,1.70611 -3.69299,4.70527 -4.65235,7.85742 -0.26467,-5.80905 -0.56016,-11.33189 -0.84179,-17.12109 -0.49713,-10.21862 -1.10512,-19.31322 -2.53516,-24.31836 a 1.50015,1.50015 0 0 0 -1.45508,-1.08789 z"
         id="path936"
         inkscape:connector-curvature="0" />
    </g>
    <g
       id="g848"
       transform="matrix(0.87445674,0,0,0.87445674,-66.631279,-78.396)"
       inkscape:export-filename="C:\Users\Kunik\Desktop\Icons.png"
       inkscape:export-xdpi="300"
       inkscape:export-ydpi="300">
      <g
         id="g839">
        <path
           style="fill:#ffffff;fill-opacity:0.98652291;stroke:none;stroke-width:0.99999994px;stroke-linecap:butt;stroke-linejoin:miter;stroke-opacity:1"
           d="m 50.066406,-160.78711 c -9.573396,0.0299 -19.498472,3.41956 -27.228515,8.98438 -8.409941,6.05426 -14.6567214,15.5071 -18.0820316,25.28711 -2.9911937,8.54059 -2.7605236,18.15735 -1.4375,27.10937 1.4351244,9.710668 4.5443653,19.538769 9.9999996,27.699219 6.452939,9.652221 15.638984,17.752758 25.753907,23.453125 12.980825,7.315483 28.456818,8.879382 42.863281,12.683594 7.655773,2.021608 20.328493,5.960123 23.136723,5.384765 2.18709,-0.448104 20.19023,-16.425781 20.80664,-19.425781 0.60873,-2.96253 -4.63208,-8.995393 -7.17774,-18.191406 -2.4384,-8.808405 -1.43866,-25.808761 -4.79492,-41.685546 -2.79458,-13.21977 -12.14339,-26.43234 -22.986328,-35.39649 -10.803402,-8.93147 -24.939908,-15.24022 -38.94336,-15.86328 -0.634353,-0.0282 -1.271929,-0.041 -1.910156,-0.0391 z m 10.025391,13.93359 c 0.749681,0.0279 1.48676,0.11558 2.171875,0.24219 8.547553,1.57958 15.886954,7.82052 22,14 5.470526,5.52995 9.449307,12.59055 12.314453,19.82227 3.530725,8.91164 9.685655,25.177646 5.671875,28.191404 -2.171,1.63011 -5.344982,3.137294 -7.863281,2.123047 -3.222312,-1.297792 -3.939875,-5.765451 -5.369141,-8.931641 -2.140195,-4.741013 -2.380015,-10.22771 -4.71289,-14.87695 -3.74298,-7.45958 -8.618397,-14.52555 -14.617188,-20.32813 -4.736126,-4.58123 -13.644515,-5.02554 -16.423828,-11 -1.036649,-2.2284 -0.848087,-5.51265 0.808594,-7.32812 1.408875,-1.54394 3.770488,-1.99772 6.019531,-1.91407 z"
           transform="matrix(0.26458333,0,0,0.26458333,107.88033,87.082518)"
           id="path828"
           inkscape:connector-curvature="0" />
      </g>
      <path
         sodipodi:nodetypes="cccccc"
         inkscape:connector-curvature="0"
         id="path841"
         d="m 139.17083,80.835417 1.5875,1.5875 c -5.55625,3.704166 5.02709,10.507359 5.02709,2.38125 7.40833,-0.264584 2.47378,-10.391591 -2.11667,-5.291667 l -1.5875,-1.5875 z"
         style="fill:none;stroke:#fffffa;stroke-width:2;stroke-linecap:butt;stroke-linejoin:miter;stroke-miterlimit:4;stroke-dasharray:none;stroke-opacity:1" />
    </g>
    <g
       id="g879"
       transform="matrix(0.72641889,0,0,0.72641889,65.672756,-90.99969)"
       inkscape:export-filename="C:\Users\Kunik\Desktop\Icons.png"
       inkscape:export-xdpi="300"
       inkscape:export-ydpi="300">
      <circle
         r="8.2980261"
         cy="46.439583"
         cx="37.041668"
         id="path861"
         style="fill:none;fill-opacity:0.9865229;stroke:#ffffff;stroke-width:2.09084129;stroke-linecap:round;stroke-miterlimit:4;stroke-dasharray:none;stroke-opacity:1;paint-order:stroke markers fill" />
      <path
         sodipodi:nodetypes="cc"
         inkscape:connector-curvature="0"
         id="path863"
         d="m 36.5125,41.677084 c -2.687254,0.559653 -3.882935,2.315386 -4.497917,4.762499"
         style="fill:none;stroke:#ffffff;stroke-width:2;stroke-linecap:round;stroke-linejoin:round;stroke-miterlimit:4;stroke-dasharray:none;stroke-opacity:1" />
      <circle
         r="1.8520833"
         cy="58.610416"
         cx="28.574999"
         id="path865"
         style="fill:none;fill-opacity:0.9865229;stroke:#ffffff;stroke-width:1.5;stroke-linecap:round;stroke-linejoin:round;stroke-miterlimit:4;stroke-dasharray:none;stroke-opacity:1;paint-order:stroke markers fill" />
      <circle
         r="4.7624998"
         cy="67.870834"
         cx="42.597916"
         id="path867"
         style="fill:none;fill-opacity:0.9865229;stroke:#ffffff;stroke-width:1.5;stroke-linecap:round;stroke-linejoin:round;stroke-miterlimit:4;stroke-dasharray:none;stroke-opacity:1;paint-order:stroke markers fill" />
      <circle
         r="2.9104166"
         cy="79.247917"
         cx="31.485416"
         id="path869"
         style="fill:none;fill-opacity:0.9865229;stroke:#ffffff;stroke-width:1.5;stroke-linecap:round;stroke-linejoin:round;stroke-miterlimit:4;stroke-dasharray:none;stroke-opacity:1;paint-order:stroke markers fill" />
      <circle
         r="2.1166666"
         cy="88.508331"
         cx="37.041668"
         id="path871"
         style="fill:none;fill-opacity:0.9865229;stroke:#ffffff;stroke-width:1.5;stroke-linecap:round;stroke-linejoin:round;stroke-miterlimit:4;stroke-dasharray:none;stroke-opacity:1;paint-order:stroke markers fill" />
    </g>
    <path
       style="fill:#ffffff;fill-opacity:1;stroke:none;stroke-width:1.91891444;stroke-linecap:round;stroke-linejoin:round;stroke-miterlimit:4;stroke-dasharray:none;stroke-opacity:1;paint-order:stroke markers fill"
       d="M 101.28919,24.105828 58.208049,67.186398 15.127472,24.105268 Z"
       id="rect845"
       inkscape:connector-curvature="0"
       sodipodi:nodetypes="cccc"
       inkscape:export-filename="C:\Users\Kunik\ArrowDown.png"
       inkscape:export-xdpi="300"
       inkscape:export-ydpi="300" />
    <path
       sodipodi:nodetypes="cccc"
       inkscape:connector-curvature="0"
       id="path848"
       d="M 244.16419,77.769176 201.08305,34.688608 158.00247,77.769726 Z"
       style="fill:#ffffff;fill-opacity:1;stroke:none;stroke-width:1.91891444;stroke-linecap:round;stroke-linejoin:round;stroke-miterlimit:4;stroke-dasharray:none;stroke-opacity:1;paint-order:stroke markers fill"
       inkscape:export-filename="C:\Users\Kunik\path848.png"
       inkscape:export-xdpi="300"
       inkscape:export-ydpi="300" />
  </g>
</svg>
